<svg width="126" height="122" viewBox="0 0 126 122" fill="none" xmlns="http://www.w3.org/2000/svg">
    <path d="M65.0877 62.256V62.756H65.5877H108.382C108.988 62.7567 109.57 62.9978 109.998 63.4266C110.427 63.8553 110.668 64.4366 110.669 65.0429V74.7422C110.669 75.3486 110.428 75.9302 109.999 76.359C109.57 76.7877 108.989 77.0286 108.383 77.0286C107.776 77.0286 107.195 76.7877 106.766 76.359C106.337 75.9302 106.096 75.3486 106.096 74.7422V67.8289V67.3289H105.596H65.6142H65.1142V67.8289V74.7422C65.1142 75.3486 64.8733 75.9302 64.4445 76.359C64.0157 76.7877 63.4341 77.0286 62.8277 77.0286C62.2213 77.0286 61.6398 76.7877 61.211 76.359C60.7822 75.9302 60.5413 75.3486 60.5413 74.7422V67.8289V67.3289H60.0413H19.8753H19.3753V67.8289V74.7422C19.3753 75.3486 19.1344 75.9301 18.7056 76.3589C18.2769 76.7877 17.6953 77.0286 17.0889 77.0286C16.4825 77.0286 15.901 76.7877 15.4722 76.3589C15.0434 75.9301 14.8025 75.3486 14.8025 74.7422V65.0426C14.8033 64.4364 15.0444 63.8552 15.4731 63.4266C15.9019 62.9978 16.4831 62.7567 17.0895 62.756H60.015H60.515V62.256V55.3426C60.515 54.7362 60.7559 54.1546 61.1847 53.7259C61.6134 53.2971 62.195 53.0562 62.8014 53.0562C63.4077 53.0562 63.9893 53.2971 64.418 53.7259C64.8468 54.1546 65.0877 54.7362 65.0877 55.3426V62.256Z" fill="#B11226" stroke="white" />
    <path d="M81.0565 43.9999H44.4152C44.5133 41.1476 44.7515 38.3017 45.1289 35.4722C45.1994 35.0828 45.3589 34.7147 45.595 34.3968C45.8358 34.0725 46.1496 33.8094 46.5109 33.6289C48.3351 32.7192 51.3102 31.5662 53.8854 30.624C55.1614 30.1571 56.3196 29.7491 57.159 29.4577C57.5785 29.3121 57.9179 29.1958 58.152 29.116C58.2691 29.0761 58.3598 29.0454 58.4209 29.0247L58.4902 29.0013L58.5075 28.9955L58.5117 28.9941L58.5126 28.9938L58.5128 28.9937L58.0356 27.5717L58.5128 28.9937L59.5356 28.6505V27.5717V24.8058V24.0587L58.9392 23.6086L58.7101 23.4356C57.3911 22.4249 56.5089 20.9476 56.2449 19.3068C56.2449 19.3065 56.2448 19.3062 56.2448 19.3059L56.1982 19.0133L55.9969 17.7492H54.7169H54.4902C54.1741 17.749 53.8652 17.6547 53.6028 17.4783C53.3405 17.3019 53.1367 17.0514 53.0173 16.7587L52.9838 16.6765L52.9408 16.5988C52.7877 16.3221 52.7074 16.011 52.7075 15.6947V15.6942C52.7074 15.4916 52.746 15.2909 52.8209 15.1027L52.8762 14.9639L52.9031 14.8169C52.9059 14.8013 52.9124 14.7868 52.9218 14.7744L53.5992 14.3631L54.5245 13.8013L54.2828 12.7461L54.0907 11.9073L54.0906 11.9068C52.9314 6.8534 56.8178 2.15581 62.3105 2.0228C62.4549 2.02007 62.5845 2.01903 62.7068 2.02139L62.7358 2.02195L62.7648 2.02139C62.887 2.01903 63.0167 2.02007 63.1611 2.0228C68.6537 2.15585 72.5402 6.85345 71.381 11.9068L71.3809 11.9073L71.1888 12.7461L70.9471 13.8013L71.8724 14.3631L72.5497 14.7744C72.5592 14.7868 72.5657 14.8013 72.5685 14.8169L72.5953 14.9639L72.6507 15.1027C72.7256 15.2909 72.7641 15.4916 72.7641 15.6942V15.6947C72.7642 16.011 72.6839 16.3221 72.5308 16.5988L72.4878 16.6765L72.4543 16.7587C72.3349 17.0514 72.1311 17.3019 71.8687 17.4783C71.6064 17.6547 71.2975 17.749 70.9814 17.7492H70.7547H69.4746L69.2734 19.0133L69.2268 19.3059C69.2267 19.3063 69.2267 19.3067 69.2266 19.3071C68.9626 20.9478 68.0804 22.4251 66.7613 23.4357L66.5323 23.6086L65.936 24.0587V24.8058V27.5717V28.6505L66.9587 28.9937L67.436 27.5717L66.9588 28.9937L66.9589 28.9938L66.9599 28.9941L66.9641 28.9955L66.9814 29.0013L67.0506 29.0247C67.1118 29.0454 67.2025 29.0761 67.3196 29.116C67.5537 29.1958 67.8931 29.3121 68.3126 29.4577C69.152 29.7491 70.3102 30.1571 71.5862 30.6239C74.1614 31.5661 77.1365 32.7192 78.9607 33.6289C79.3221 33.8094 79.6358 34.0725 79.8766 34.3968C80.1127 34.7147 80.2722 35.0827 80.3428 35.4722C80.7201 38.3016 80.9583 41.1476 81.0565 43.9999Z" stroke="#B11226" stroke-width="3" />
    <path d="M32.2949 119.98H1.5413C1.62927 117.636 1.82853 115.298 2.1385 112.972C2.19298 112.676 2.3147 112.396 2.49444 112.154C2.67876 111.906 2.9189 111.704 3.19545 111.566C4.73701 110.797 7.26058 109.819 9.45497 109.016C10.5405 108.619 11.526 108.272 12.2402 108.024C12.5971 107.9 12.8858 107.801 13.0849 107.733C13.1844 107.699 13.2615 107.673 13.3135 107.656L13.3723 107.636L13.3869 107.631L13.3904 107.63L13.3912 107.629L13.3913 107.629L14.4141 107.286V106.207V103.851V103.104L13.8177 102.654L13.6233 102.507C12.545 101.681 11.8238 100.473 11.608 99.1312C11.608 99.1309 11.6079 99.1307 11.6079 99.1305L11.5682 98.8814L11.3669 97.6174H10.0869H9.89392C9.66877 97.6173 9.44873 97.5502 9.26187 97.4245C9.07502 97.2988 8.92983 97.1204 8.84481 96.9119L8.81129 96.8297L8.76833 96.7521C8.6561 96.5493 8.59725 96.3212 8.59731 96.0895L8.59731 96.0889C8.59729 95.9445 8.62474 95.8015 8.67818 95.6673L8.73349 95.5285L8.74783 95.4499L9.25006 95.145L10.1754 94.5832L9.93369 93.528L9.77003 92.8134L9.76991 92.8128C8.81748 88.661 12.0057 84.7753 16.5606 84.6647C16.6822 84.6624 16.7892 84.6616 16.8891 84.6635L16.9181 84.6641L16.9471 84.6635C17.047 84.6616 17.154 84.6624 17.2756 84.6647C21.8305 84.7753 25.0187 88.661 24.0663 92.8128L24.0661 92.8134L23.9025 93.528L23.6608 94.5832L24.5861 95.145L25.0883 95.4499L25.1027 95.5285L25.158 95.6673C25.2114 95.8015 25.2389 95.9445 25.2389 96.0889V96.0895C25.2389 96.3213 25.1801 96.5493 25.0679 96.7521L25.0249 96.8297L24.9914 96.9119C24.9063 97.1204 24.7612 97.2988 24.5743 97.4245C24.3874 97.5502 24.1674 97.6173 23.9423 97.6174H23.7493H22.4693L22.268 98.8814L22.2283 99.1305C22.2282 99.1311 22.2281 99.1318 22.228 99.1324C22.228 99.1325 22.228 99.1325 22.228 99.1326C22.0119 100.473 21.2909 101.681 20.213 102.507L20.0185 102.654L19.4221 103.104V103.851V106.207V107.286L20.4448 107.629L20.445 107.629L20.4458 107.63L20.4493 107.631L20.4639 107.636L20.5227 107.655C20.5746 107.673 20.6517 107.699 20.7513 107.733C20.9504 107.801 21.2391 107.9 21.596 108.024C22.3102 108.272 23.2957 108.619 24.3812 109.016C26.5756 109.819 29.0992 110.797 30.6407 111.566C30.9173 111.704 31.1574 111.906 31.3417 112.154C31.5215 112.396 31.6432 112.676 31.6977 112.972C32.0077 115.298 32.2069 117.636 32.2949 119.98Z" stroke="#B11226" stroke-width="3" />
    <path d="M78.1125 119.98H47.3589C47.4469 117.636 47.6462 115.298 47.9561 112.972C48.0106 112.676 48.1323 112.396 48.3121 112.154C48.4964 111.906 48.7365 111.704 49.0131 111.566C50.5546 110.797 53.0782 109.819 55.2726 109.016C56.3581 108.619 57.3436 108.272 58.0578 108.024C58.4147 107.9 58.7034 107.801 58.9025 107.733C59.0021 107.699 59.0792 107.673 59.1311 107.656L59.1899 107.636L59.2045 107.631L59.208 107.63L59.2088 107.629L59.209 107.629L60.2317 107.286V106.207V103.851V103.104L59.6353 102.654L59.4409 102.507C58.3626 101.681 57.6415 100.473 57.4256 99.1313C57.4256 99.131 57.4255 99.1307 57.4255 99.1305L57.3858 98.8815L57.1845 97.6174H55.9045H55.7115C55.4864 97.6173 55.2664 97.5502 55.0795 97.4245C54.8926 97.2988 54.7475 97.1204 54.6624 96.9119L54.6289 96.8297L54.586 96.7521C54.4737 96.5493 54.4149 96.3212 54.4149 96.0895V96.0889C54.4149 95.9445 54.4424 95.8015 54.4958 95.6673L54.5511 95.5285L54.5655 95.4499L55.0677 95.145L55.993 94.5832L55.7513 93.528L55.5877 92.8134L55.5875 92.8128C54.6351 88.661 57.8233 84.7753 62.3782 84.6647C62.4998 84.6624 62.6068 84.6616 62.7067 84.6635L62.7357 84.6641L62.7647 84.6635C62.8646 84.6616 62.9716 84.6624 63.0932 84.6647C67.6481 84.7753 70.8363 88.661 69.8839 92.8128L69.8838 92.8134L69.7201 93.528L69.4785 94.5832L70.4038 95.145L70.906 95.4499L70.9203 95.5285L70.9756 95.6673C71.0291 95.8015 71.0565 95.9445 71.0565 96.0889V96.0895C71.0566 96.3213 70.9977 96.5493 70.8855 96.7521L70.8425 96.8297L70.809 96.9119C70.724 97.1204 70.5788 97.2988 70.3919 97.4245C70.2051 97.5502 69.985 97.6173 69.7599 97.6174H69.5669H68.2869L68.0856 98.8814L68.0459 99.1305C68.0458 99.1311 68.0457 99.1317 68.0456 99.1323C67.8296 100.473 67.1086 101.681 66.0306 102.507L65.8361 102.654L65.2397 103.104V103.851V106.207V107.286L66.2625 107.629L66.2626 107.629L66.2634 107.63L66.2669 107.631L66.2815 107.636L66.3403 107.655C66.3923 107.673 66.4694 107.699 66.5689 107.733C66.768 107.801 67.0567 107.9 67.4137 108.024C68.1278 108.272 69.1134 108.619 70.1989 109.016C72.3933 109.819 74.9168 110.797 76.4584 111.566C76.7349 111.704 76.975 111.906 77.1594 112.154C77.3391 112.396 77.4608 112.676 77.5153 112.972C77.8253 115.298 78.0245 117.636 78.1125 119.98Z" stroke="#B11226" stroke-width="3" />
    <path d="M124.062 119.98H93.3081C93.3961 117.636 93.5954 115.298 93.9053 112.972C93.9598 112.676 94.0816 112.396 94.2613 112.154C94.4456 111.906 94.6858 111.704 94.9623 111.566C96.5039 110.797 99.0274 109.819 101.222 109.016C102.307 108.619 103.293 108.272 104.007 108.024C104.364 107.9 104.653 107.801 104.852 107.733C104.951 107.699 105.028 107.673 105.08 107.656L105.139 107.636L105.154 107.631L105.157 107.63L105.158 107.629L105.158 107.629L106.181 107.286V106.207V103.851V103.104L105.585 102.654L105.39 102.507C104.312 101.681 103.591 100.473 103.375 99.1311C103.375 99.1309 103.375 99.1307 103.375 99.1305L103.335 98.8814L103.134 97.6174H101.854H101.661C101.436 97.6173 101.216 97.5502 101.029 97.4245C100.842 97.2988 100.697 97.1204 100.612 96.9119L100.578 96.8297L100.535 96.7521C100.423 96.5493 100.364 96.3212 100.364 96.0895V96.0889C100.364 95.9445 100.392 95.8015 100.445 95.6673L100.5 95.5285L100.515 95.4499L101.017 95.145L101.942 94.5832L101.701 93.528L101.537 92.8134L101.537 92.8128C100.584 88.661 103.773 84.7753 108.327 84.6647C108.449 84.6624 108.556 84.6616 108.656 84.6635L108.685 84.6641L108.714 84.6635C108.814 84.6616 108.921 84.6624 109.042 84.6647C113.597 84.7753 116.786 88.661 115.833 92.8128L115.833 92.8134L115.669 93.528L115.428 94.5832L116.353 95.145L116.855 95.4499L116.87 95.5285L116.925 95.6673C116.978 95.8015 117.006 95.9445 117.006 96.0889V96.0895C117.006 96.3213 116.947 96.5493 116.835 96.7521L116.792 96.8297L116.758 96.9119C116.673 97.1204 116.528 97.2988 116.341 97.4245C116.154 97.5502 115.934 97.6173 115.709 97.6174H115.516H114.236L114.035 98.8815L113.995 99.1305C113.995 99.1308 113.995 99.1312 113.995 99.1316C113.779 100.473 113.058 101.681 111.98 102.507L111.785 102.654L111.189 103.104V103.851V106.207V107.286L112.212 107.629L112.212 107.629L112.213 107.63L112.216 107.631L112.231 107.636L112.29 107.655C112.341 107.673 112.419 107.699 112.518 107.733C112.717 107.801 113.006 107.9 113.363 108.024C114.077 108.272 115.063 108.619 116.148 109.016C118.342 109.819 120.866 110.797 122.408 111.566C122.684 111.704 122.924 111.906 123.109 112.154C123.288 112.396 123.41 112.676 123.465 112.972C123.774 115.298 123.974 117.636 124.062 119.98Z" stroke="#B11226" stroke-width="3" />
</svg>
    