<svg width="111" height="126" viewBox="0 0 111 126" fill="none" xmlns="http://www.w3.org/2000/svg">
    <mask id="path-1-inside-1_23_25" fill="white">
        <path d="M105.464 116.622L103.379 113.986L93.483 124.871C93.2321 125.156 92.9223 125.385 92.5745 125.542C92.2267 125.699 91.849 125.78 91.4669 125.78C91.0847 125.78 90.707 125.699 90.3592 125.542C90.0114 125.385 89.7016 125.156 89.4508 124.871L79.3702 114.077L69.497 124.608C69.2553 124.898 68.9541 125.133 68.6134 125.299C68.2727 125.464 67.9003 125.556 67.521 125.568C67.1418 125.58 66.7643 125.512 66.4137 125.368C66.0632 125.224 65.7475 125.008 65.4878 124.734L55.0156 114.077L45.4995 124.859L45.3267 125.065C45.0769 125.358 44.7655 125.593 44.4143 125.755C44.0631 125.916 43.6806 126 43.2933 126C42.9061 126 42.5235 125.916 42.1723 125.755C41.8211 125.593 41.5098 125.358 41.2599 125.065L31.2946 114.077L21.0067 124.871C20.7558 125.152 20.4474 125.378 20.1018 125.532C19.7561 125.687 19.3813 125.767 19.0021 125.767C18.6229 125.767 18.248 125.687 17.9024 125.532C17.5568 125.378 17.2483 125.152 16.9975 124.871L7.21647 113.906L5.18884 116.496C4.93984 116.88 4.59949 117.197 4.19773 117.42C3.79596 117.642 3.34508 117.764 2.88471 117.774C2.07977 117.733 1.32429 117.377 0.784256 116.784C0.244219 116.191 -0.0362177 115.411 0.00455303 114.613V3.40292C-0.0394417 2.60866 0.236793 1.8296 0.772544 1.23696C1.3083 0.644322 2.05972 0.286606 2.86167 0.242432L107.619 0.242432C108.424 0.283742 109.179 0.639807 109.719 1.23241C110.259 1.82501 110.54 2.60568 110.499 3.40292V114.591C110.505 115.035 110.419 115.475 110.246 115.885C110.074 116.295 109.819 116.666 109.497 116.975C109.228 117.248 108.902 117.459 108.542 117.593C108.182 117.728 107.797 117.782 107.414 117.753C107.03 117.723 106.658 117.611 106.323 117.423C105.988 117.236 105.699 116.978 105.476 116.667L105.464 116.622ZM17.032 18.498H40.4074V25.4693H32.6195V45.8813H24.8315V25.4693H17.0436V18.498H17.032ZM56.7322 41.5798H48.4488L47.2392 45.8813H39.1747L48.5064 18.498H56.905L66.2021 45.8813H57.9073L56.7552 41.5912L56.7322 41.5798ZM55.3036 35.1333L52.5962 25.3438L49.8774 35.1562L55.3036 35.1333ZM66.8242 18.498H75.2919L79.6813 26.9183L83.99 18.498H92.3424L84.6351 31.7561L93.0798 45.8813H84.4393L79.5776 37.0958L74.6698 45.8813H66.1099L74.6698 31.6191L66.8242 18.498ZM81.9393 87.2187C82.5212 87.3075 83.0517 87.5997 83.435 88.0423C83.8183 88.4849 84.029 89.0487 84.029 89.6318C84.029 90.2149 83.8183 90.7787 83.435 91.2214C83.0517 91.664 82.5212 91.9561 81.9393 92.045H21.8938C21.3119 91.9561 20.7813 91.664 20.3981 91.2214C20.0148 90.7787 19.8041 90.2149 19.8041 89.6318C19.8041 89.0487 20.0148 88.4849 20.3981 88.0423C20.7813 87.5997 21.3119 87.3075 21.8938 87.2187H81.9393ZM93.9438 71.6444C94.5339 71.7249 95.0745 72.0142 95.4659 72.4588C95.8573 72.9035 96.0729 73.4734 96.0729 74.0633C96.0729 74.6532 95.8573 75.2231 95.4659 75.6677C95.0745 76.1124 94.5339 76.4017 93.9438 76.4821H21.2716C20.6816 76.4017 20.1409 76.1124 19.7495 75.6677C19.3581 75.2231 19.1425 74.6532 19.1425 74.0633C19.1425 73.4734 19.3581 72.9035 19.7495 72.4588C20.1409 72.0142 20.6816 71.7249 21.2716 71.6444H93.9438ZM94.0475 56.0702C94.4113 56.108 94.7617 56.2271 95.0723 56.4184C95.383 56.6097 95.6458 56.8683 95.841 57.1747C96.0361 57.4811 96.1586 57.8274 96.1992 58.1875C96.2397 58.5475 96.1973 58.912 96.0751 59.2535C95.9562 59.7204 95.6852 60.1355 95.3041 60.4345C94.923 60.7336 94.453 60.8999 93.9668 60.9079H21.2716C20.6816 60.8274 20.1409 60.5381 19.7495 60.0935C19.3581 59.6488 19.1425 59.0789 19.1425 58.489C19.1425 57.8991 19.3581 57.3292 19.7495 56.8846C20.1409 56.4399 20.6816 56.1506 21.2716 56.0702H94.0475ZM104.635 6.68892H5.84551V106.729C6.34988 106.437 6.93808 106.318 7.51776 106.393C8.09744 106.467 8.63577 106.73 9.04825 107.14C9.11032 107.189 9.16469 107.246 9.20954 107.311H9.22106L19.1749 118.413L29.4167 107.631C29.6676 107.349 29.976 107.123 30.3216 106.969C30.6673 106.814 31.0421 106.734 31.4213 106.734C31.8005 106.734 32.1754 106.814 32.521 106.969C32.8666 107.123 33.1751 107.349 33.4259 107.631L43.2876 118.527L52.8497 107.653C53.0912 107.365 53.392 107.13 53.7322 106.966C54.0724 106.802 54.4441 106.711 54.8225 106.7C55.2008 106.689 55.5771 106.759 55.9263 106.903C56.2755 107.048 56.5895 107.265 56.8474 107.539L67.3657 118.276L77.3541 107.711C77.6038 107.429 77.9113 107.204 78.256 107.049C78.6007 106.895 78.9746 106.815 79.3529 106.815C79.7312 106.815 80.1052 106.895 80.4499 107.049C80.7945 107.204 81.102 107.429 81.3517 107.711L91.3517 118.436L101.386 107.402C101.775 106.948 102.309 106.639 102.899 106.524C103.49 106.41 104.102 106.499 104.635 106.775V6.68892Z" />
    </mask>
    <path d="M105.464 116.622L103.379 113.986L93.483 124.871C93.2321 125.156 92.9223 125.385 92.5745 125.542C92.2267 125.699 91.849 125.78 91.4669 125.78C91.0847 125.78 90.707 125.699 90.3592 125.542C90.0114 125.385 89.7016 125.156 89.4508 124.871L79.3702 114.077L69.497 124.608C69.2553 124.898 68.9541 125.133 68.6134 125.299C68.2727 125.464 67.9003 125.556 67.521 125.568C67.1418 125.58 66.7643 125.512 66.4137 125.368C66.0632 125.224 65.7475 125.008 65.4878 124.734L55.0156 114.077L45.4995 124.859L45.3267 125.065C45.0769 125.358 44.7655 125.593 44.4143 125.755C44.0631 125.916 43.6806 126 43.2933 126C42.9061 126 42.5235 125.916 42.1723 125.755C41.8211 125.593 41.5098 125.358 41.2599 125.065L31.2946 114.077L21.0067 124.871C20.7558 125.152 20.4474 125.378 20.1018 125.532C19.7561 125.687 19.3813 125.767 19.0021 125.767C18.6229 125.767 18.248 125.687 17.9024 125.532C17.5568 125.378 17.2483 125.152 16.9975 124.871L7.21647 113.906L5.18884 116.496C4.93984 116.88 4.59949 117.197 4.19773 117.42C3.79596 117.642 3.34508 117.764 2.88471 117.774C2.07977 117.733 1.32429 117.377 0.784256 116.784C0.244219 116.191 -0.0362177 115.411 0.00455303 114.613V3.40292C-0.0394417 2.60866 0.236793 1.8296 0.772544 1.23696C1.3083 0.644322 2.05972 0.286606 2.86167 0.242432L107.619 0.242432C108.424 0.283742 109.179 0.639807 109.719 1.23241C110.259 1.82501 110.54 2.60568 110.499 3.40292V114.591C110.505 115.035 110.419 115.475 110.246 115.885C110.074 116.295 109.819 116.666 109.497 116.975C109.228 117.248 108.902 117.459 108.542 117.593C108.182 117.728 107.797 117.782 107.414 117.753C107.03 117.723 106.658 117.611 106.323 117.423C105.988 117.236 105.699 116.978 105.476 116.667L105.464 116.622ZM17.032 18.498H40.4074V25.4693H32.6195V45.8813H24.8315V25.4693H17.0436V18.498H17.032ZM56.7322 41.5798H48.4488L47.2392 45.8813H39.1747L48.5064 18.498H56.905L66.2021 45.8813H57.9073L56.7552 41.5912L56.7322 41.5798ZM55.3036 35.1333L52.5962 25.3438L49.8774 35.1562L55.3036 35.1333ZM66.8242 18.498H75.2919L79.6813 26.9183L83.99 18.498H92.3424L84.6351 31.7561L93.0798 45.8813H84.4393L79.5776 37.0958L74.6698 45.8813H66.1099L74.6698 31.6191L66.8242 18.498ZM81.9393 87.2187C82.5212 87.3075 83.0517 87.5997 83.435 88.0423C83.8183 88.4849 84.029 89.0487 84.029 89.6318C84.029 90.2149 83.8183 90.7787 83.435 91.2214C83.0517 91.664 82.5212 91.9561 81.9393 92.045H21.8938C21.3119 91.9561 20.7813 91.664 20.3981 91.2214C20.0148 90.7787 19.8041 90.2149 19.8041 89.6318C19.8041 89.0487 20.0148 88.4849 20.3981 88.0423C20.7813 87.5997 21.3119 87.3075 21.8938 87.2187H81.9393ZM93.9438 71.6444C94.5339 71.7249 95.0745 72.0142 95.4659 72.4588C95.8573 72.9035 96.0729 73.4734 96.0729 74.0633C96.0729 74.6532 95.8573 75.2231 95.4659 75.6677C95.0745 76.1124 94.5339 76.4017 93.9438 76.4821H21.2716C20.6816 76.4017 20.1409 76.1124 19.7495 75.6677C19.3581 75.2231 19.1425 74.6532 19.1425 74.0633C19.1425 73.4734 19.3581 72.9035 19.7495 72.4588C20.1409 72.0142 20.6816 71.7249 21.2716 71.6444H93.9438ZM94.0475 56.0702C94.4113 56.108 94.7617 56.2271 95.0723 56.4184C95.383 56.6097 95.6458 56.8683 95.841 57.1747C96.0361 57.4811 96.1586 57.8274 96.1992 58.1875C96.2397 58.5475 96.1973 58.912 96.0751 59.2535C95.9562 59.7204 95.6852 60.1355 95.3041 60.4345C94.923 60.7336 94.453 60.8999 93.9668 60.9079H21.2716C20.6816 60.8274 20.1409 60.5381 19.7495 60.0935C19.3581 59.6488 19.1425 59.0789 19.1425 58.489C19.1425 57.8991 19.3581 57.3292 19.7495 56.8846C20.1409 56.4399 20.6816 56.1506 21.2716 56.0702H94.0475ZM104.635 6.68892H5.84551V106.729C6.34988 106.437 6.93808 106.318 7.51776 106.393C8.09744 106.467 8.63577 106.73 9.04825 107.14C9.11032 107.189 9.16469 107.246 9.20954 107.311H9.22106L19.1749 118.413L29.4167 107.631C29.6676 107.349 29.976 107.123 30.3216 106.969C30.6673 106.814 31.0421 106.734 31.4213 106.734C31.8005 106.734 32.1754 106.814 32.521 106.969C32.8666 107.123 33.1751 107.349 33.4259 107.631L43.2876 118.527L52.8497 107.653C53.0912 107.365 53.392 107.13 53.7322 106.966C54.0724 106.802 54.4441 106.711 54.8225 106.7C55.2008 106.689 55.5771 106.759 55.9263 106.903C56.2755 107.048 56.5895 107.265 56.8474 107.539L67.3657 118.276L77.3541 107.711C77.6038 107.429 77.9113 107.204 78.256 107.049C78.6007 106.895 78.9746 106.815 79.3529 106.815C79.7312 106.815 80.1052 106.895 80.4499 107.049C80.7945 107.204 81.102 107.429 81.3517 107.711L91.3517 118.436L101.386 107.402C101.775 106.948 102.309 106.639 102.899 106.524C103.49 106.41 104.102 106.499 104.635 106.775V6.68892Z" fill="#B11226" stroke="white" stroke-width="2" mask="url(#path-1-inside-1_23_25)" />
</svg>
    