<svg width="50" height="43" viewBox="0 0 50 43" fill="none" xmlns="http://www.w3.org/2000/svg">
    <g clip-path="url(#clip0_0_1)">
        <path d="M50.0001 3.4433L46.23 9.44134C46.23 9.44134 42.8307 6.01389 37.0211 7.59579C31.2114 9.17769 27.2559 15.3076 28.3684 22.1625C29.4809 29.0174 36.5266 36.7291 46.23 30.8629C48.6404 34.554 49.691 36.5973 49.691 36.5973C49.691 36.5973 44.0668 42.2658 33.4982 38.6406C22.5588 33.7631 20.5192 21.8988 22.2498 15.1757C23.9803 8.45265 27.874 3.17965 35.1051 0.674977C42.3363 -1.8297 50.0001 3.4433 50.0001 3.4433Z" fill="white" />
        <path d="M23.1153 6.93665C23.1153 6.93665 18.2327 14.8461 19.6542 24.008C21.0757 33.1698 29.9138 39.2338 33.5602 40.9475C22.6208 38.6406 15.0806 34.2244 13.0411 21.4374C9.2092 22.5579 7.66408 23.0852 7.66408 23.0852L6.6134 14.978L23.1153 6.93665Z" fill="white" />
        <path d="M10.3214 25.1285C10.3214 25.1285 12.2373 39.5633 33.1891 42.5294C23.424 44.309 9.88875 41.3429 0 28.4241C7.23115 26.1831 10.3214 25.1285 10.3214 25.1285Z" fill="white" />
    </g>
    <defs>
        <clipPath id="clip0_0_1">
            <rect width="50" height="43" fill="white" />
        </clipPath>
    </defs>
</svg>
    