<svg width="31" height="34" viewBox="0 0 31 34" fill="none" xmlns="http://www.w3.org/2000/svg">
    <path d="M15.417 6.61396C16.1194 6.67856 16.8158 6.79724 17.5 6.96896C19.3639 7.31031 21.0537 8.28244 22.2857 9.7222C23.5177 11.162 24.2169 12.9817 24.266 14.876V24.982L25.078 25.724L25.756 26.344H4.904L5.582 25.724L6.394 24.982V14.876C6.4431 12.9817 7.14233 11.162 8.37433 9.7222C9.60632 8.28244 11.2961 7.31031 13.16 6.96896C13.8462 6.80704 14.5419 6.68847 15.243 6.61396H15.417ZM15.33 0.87496C14.9888 0.853901 14.6469 0.90167 14.3246 1.01543C14.0023 1.12919 13.7061 1.30661 13.4538 1.53714C13.2014 1.76767 12.998 2.04661 12.8556 2.35735C12.7132 2.66809 12.6348 3.00429 12.625 3.34596V4.49996C7.485 5.57096 3.607 9.85296 3.607 14.877V23.936L0 27.23V28.877H30.66V27.23L27.053 23.936V14.876C27.053 9.85196 23.175 5.56996 18.035 4.49996V3.34596C18.0252 3.00429 17.9468 2.66809 17.8044 2.35735C17.662 2.04661 17.4586 1.76767 17.2062 1.53714C16.9539 1.30661 16.6577 1.12919 16.3354 1.01543C16.0131 0.90167 15.6712 0.853901 15.33 0.87496ZM18.937 30.524H11.723C11.7689 31.4375 12.1735 32.296 12.849 32.9129C13.5244 33.5297 14.416 33.855 15.33 33.818C16.244 33.855 17.1356 33.5297 17.811 32.9129C18.4865 32.296 18.8911 31.4375 18.937 30.524Z" fill="white" />
</svg>
    