<svg width="43" height="41" viewBox="0 0 43 41" fill="none" xmlns="http://www.w3.org/2000/svg">
    <g clip-path="url(#clip0_42_1137)">
        <path d="M28.7869 40.6191H11.7235C8.7169 40.6157 5.83443 39.4269 3.70845 37.3136C1.58246 35.2003 0.386565 32.3351 0.383118 29.3464V12.3824C0.386565 9.39378 1.58246 6.52851 3.70845 4.4152C5.83443 2.3019 8.7169 1.11314 11.7235 1.10971H19.3246V2.40455H11.7235C9.06219 2.40737 6.51069 3.45952 4.62886 5.33013C2.74703 7.20073 1.68857 9.73701 1.68573 12.3824V29.3471C1.68857 31.9926 2.74703 34.5289 4.62886 36.3995C6.51069 38.2701 9.06219 39.3222 11.7235 39.325H28.7885C31.4498 39.3222 34.0013 38.2701 35.8831 36.3995C37.765 34.5289 38.8234 31.9926 38.8263 29.3471V20.8644H40.1289V29.3456C40.1252 32.3342 38.9293 35.1994 36.8033 37.3126C34.6774 39.4259 31.795 40.6147 28.7885 40.6184L28.7869 40.6191Z" fill="#A8A8A8" stroke="#A8A8A8" />
        <path d="M40.3028 6.82452L19.9614 27.0438L13.7426 28.3676L15.075 22.1851L35.415 1.96735L40.3021 6.82452H40.3028ZM41.7388 6.82452L35.415 0.538452L14.1441 21.6832L12.4193 29.6808L20.4648 27.9662L41.7388 6.82452Z" fill="#A8A8A8" stroke="#A8A8A8" />
    </g>
    <defs>
        <clipPath id="clip0_42_1137">
            <rect width="42.2812" height="41" fill="white" />
        </clipPath>
    </defs>
</svg>
    