<svg width="36" height="46" viewBox="0 0 36 46" fill="none" xmlns="http://www.w3.org/2000/svg">
    <path d="M18.7864 44.41H18.6912L18.5904 44.431C18.3935 44.472 18.1932 44.4951 17.9922 44.4999C16.4116 44.4866 15.0772 43.4393 14.6339 42H21.344C21.309 42.124 21.2672 42.2462 21.2186 42.3661C20.7687 43.3896 19.8689 44.1439 18.7864 44.41ZM14.5 1.5H21.5V5.405V6.19487L22.2684 6.37781C24.9222 7.00962 26.9493 8.46393 28.3311 10.6469C29.7259 12.8504 30.5 15.858 30.5 19.625V32V32.618L31.0528 32.8944L35 34.868V37.75H1V34.868L4.94721 32.8944L5.5 32.618V32V19.625V19.6063L5.4993 19.5877C5.38749 16.5932 6.06242 13.6217 7.45673 10.9694C8.79082 8.61847 11.066 6.94933 13.7095 6.3828L14.5 6.2134V5.405V1.5Z" stroke="#A8A8A8" stroke-width="2" />
</svg>
    