<svg width="37" height="41" viewBox="0 0 37 41" fill="none" xmlns="http://www.w3.org/2000/svg">
    <path d="M8.29167 4.66671H8.79167V4.16671V0.583374H11.875V4.16671V4.66671H12.375H24.625H25.125V4.16671V0.583374H28.2083V4.16671V4.66671H28.7083H32.7917C34.7707 4.66671 36.375 6.27102 36.375 8.25004V36.8334C36.375 38.8124 34.7707 40.4167 32.7917 40.4167H4.20833C2.22931 40.4167 0.625 38.8124 0.625 36.8334V8.25004C0.625 6.27102 2.22931 4.66671 4.20833 4.66671H8.29167ZM4.20833 15.9167H3.70833V16.4167V36.8334V37.3334H4.20833H32.7917H33.2917V36.8334V16.4167V15.9167H32.7917H4.20833ZM4.20833 7.75004H3.70833V8.25004V12.3334V12.8334H4.20833H32.7917H33.2917V12.3334V8.25004V7.75004H32.7917H4.20833ZM28.2083 32.25H25.125V29.1667H28.2083V32.25ZM20.0417 32.25H16.9583V29.1667H20.0417V32.25ZM11.875 32.25H8.79167V29.1667H11.875V32.25ZM28.2083 24.0834H25.125V21H28.2083V24.0834ZM20.0417 24.0834H16.9583V21H20.0417V24.0834ZM11.875 24.0834H8.79167V21H11.875V24.0834Z" fill="#A8A8A8" stroke="white" />
</svg>
    