<svg width="35" height="35" viewBox="0 0 35 35" fill="none" xmlns="http://www.w3.org/2000/svg">
    <path fill-rule="evenodd" clip-rule="evenodd" d="M4.65587 24.8379C4.5404 24.91 4.32287 25.3626 4.42128 25.7597C4.56764 26.3504 5.08823 26.5809 5.08823 26.5809C5.08823 26.5809 5.90267 27.6715 5.90267 28.3058C5.90267 28.94 5.90267 29.1865 5.68442 29.7156C5.46616 30.2447 1.18188 30.879 1 33.9985H7.23577L13.54 33.9992C13.3581 30.8797 9.07384 30.2454 8.85558 29.7163C8.63733 29.1871 8.63732 28.9407 8.63732 28.3065C8.63732 27.6722 9.45176 26.5816 9.45176 26.5816C9.45176 26.5816 9.97236 26.351 10.1187 25.7604C10.2171 25.3633 9.9996 24.9106 9.88413 24.8385C10.1928 23.8834 10.8092 20.5904 7.30423 20.4717C7.28865 20.4695 7.27315 20.4699 7.25773 20.4704C3.73077 20.5897 4.34722 23.8827 4.65587 24.8379Z" stroke="white" stroke-width="1.3" stroke-linecap="round" stroke-linejoin="round" />
    <path fill-rule="evenodd" clip-rule="evenodd" d="M25.1159 24.8379C25.0004 24.91 24.7829 25.3626 24.8813 25.7597C25.0277 26.3504 25.5483 26.5809 25.5483 26.5809C25.5483 26.5809 26.3627 27.6715 26.3627 28.3058C26.3627 28.94 26.3627 29.1865 26.1444 29.7156C25.9262 30.2447 21.6419 30.879 21.46 33.9985H27.6958L34 33.9992C33.8181 30.8797 29.5339 30.2454 29.3156 29.7163C29.0973 29.1871 29.0973 28.9407 29.0973 28.3065C29.0973 27.6722 29.9118 26.5816 29.9118 26.5816C29.9118 26.5816 30.4324 26.351 30.5787 25.7604C30.6772 25.3633 30.4596 24.9106 30.3441 24.8385C30.6528 23.8834 31.2693 20.5904 27.7643 20.4717C27.7487 20.4695 27.7332 20.4699 27.7178 20.4704C24.1908 20.5897 24.8072 23.8827 25.1159 24.8379Z" stroke="white" stroke-width="1.3" stroke-linecap="round" stroke-linejoin="round" />
    <path fill-rule="evenodd" clip-rule="evenodd" d="M14.8859 5.36785C14.7704 5.43997 14.5528 5.8926 14.6513 6.28974C14.7976 6.88036 15.3182 7.11087 15.3182 7.11087C15.3182 7.11087 16.1327 8.20151 16.1327 8.83577C16.1327 9.47004 16.1327 9.71645 15.9144 10.2456C15.6961 10.7747 11.4119 11.409 11.23 14.5285H17.4657L23.77 14.5292C23.5881 11.4097 19.3038 10.7754 19.0856 10.2463C18.8673 9.71714 18.8673 9.47072 18.8673 8.83646C18.8673 8.20219 19.6817 7.11155 19.6817 7.11155C19.6817 7.11155 20.2023 6.88104 20.3487 6.29042C20.4471 5.89329 20.2296 5.44065 20.1141 5.36853C20.4228 4.41336 21.0392 1.12042 17.5342 1.00174C17.5186 0.999497 17.5031 0.999898 17.4877 1.00036C13.9607 1.11974 14.5772 4.41268 14.8859 5.36785Z" stroke="white" stroke-width="1.3" stroke-linecap="round" stroke-linejoin="round" />
    <path d="M17.5 22.4492L21.79 25.0892" stroke="white" stroke-width="1.3" stroke-linecap="round" stroke-linejoin="round" />
    <path d="M17.5 18.1591V22.4491L13.21 25.0891" stroke="white" stroke-width="1.3" stroke-linecap="round" stroke-linejoin="round" />
</svg>
    