<svg width="84" height="94" viewBox="0 0 84 94" fill="none" xmlns="http://www.w3.org/2000/svg">
    <path d="M10.5833 89.3V62.35H17.4167V84.6V85.85H18.6667H74.6667H75.9167V84.6V9.4V8.15H74.6667H18.6667H17.4167V9.4V31.65H10.5833V4.7C10.5833 3.78214 10.9454 2.90366 11.5872 2.25733C12.2286 1.6113 13.0967 1.25 14 1.25H79.3333C80.2366 1.25 81.1047 1.6113 81.7461 2.25733C82.3879 2.90366 82.75 3.78214 82.75 4.7V89.3C82.75 90.2179 82.3879 91.0963 81.7461 91.7427C81.1047 92.3887 80.2366 92.75 79.3333 92.75H14C13.0967 92.75 12.2286 92.3887 11.5872 91.7427C10.9454 91.0963 10.5833 90.2179 10.5833 89.3ZM37.3333 43.55H38.5833V42.3V30.8124L58.6743 47L38.5833 63.1876V51.7V50.45H37.3333H1.25V43.55H37.3333Z" fill="#B11226" stroke="white" stroke-width="2.5" />
</svg>
    