<svg width="117" height="118" viewBox="0 0 117 118" fill="none" xmlns="http://www.w3.org/2000/svg">
    <path d="M17.3596 34.9314C18.15 35.4335 19.2282 35.1931 19.7303 34.4036C24.7735 26.4715 32.001 20.3497 40.6312 16.6993C41.5045 16.3297 41.9134 15.3221 41.5436 14.4485C41.1743 13.575 40.1666 13.1668 39.2931 13.5359C30.018 17.459 22.2508 24.0376 16.8318 32.5606C16.3228 33.3611 16.5594 34.4226 17.3596 34.9314Z" fill="#B11226" />
    <path d="M40.6309 101.301C32.0486 97.6707 24.8481 91.5909 19.8081 83.7189C19.2968 82.92 18.2342 82.6874 17.436 83.1987C16.6374 83.71 16.4043 84.7721 16.9158 85.5708C22.3315 94.0294 30.0694 100.563 39.2931 104.464C40.2016 104.848 41.2734 104.364 41.5891 103.431C41.8738 102.591 41.4474 101.646 40.6309 101.301Z" fill="#B11226" />
    <path d="M99.7779 82.8312C98.9744 82.3268 97.9148 82.5693 97.4104 83.3727C92.3145 91.4907 84.9585 97.7234 76.1378 101.398C75.3296 101.734 74.8987 102.657 75.1586 103.493C75.4544 104.445 76.5369 104.952 77.4585 104.568C86.9386 100.619 94.8439 93.9214 100.32 85.1985C100.824 84.3953 100.581 83.3354 99.7779 82.8312Z" fill="#B11226" />
    <path d="M76.1378 16.6027C84.8706 20.24 92.1778 26.3955 97.2693 34.4038C97.8051 35.2462 98.9804 35.4495 99.7705 34.8395C100.463 34.3047 100.636 33.2988 100.168 32.5611C94.6964 23.9559 86.8438 17.3413 77.4583 13.4322C76.5829 13.0674 75.5773 13.4816 75.2126 14.3572C74.8483 15.2325 75.2623 16.2379 76.1378 16.6027Z" fill="#B11226" />
    <path d="M41.3258 82.8928C33.6564 77.3697 29.0776 68.4378 29.0776 59C29.0776 49.6262 33.6072 40.7302 41.1942 35.2027C41.9608 34.6443 42.1295 33.5702 41.5711 32.8036C41.0128 32.0368 39.9385 31.8688 39.172 32.4267C30.7007 38.5983 25.6431 48.532 25.6431 59C25.6431 69.5393 30.7554 79.5128 39.319 85.6796C40.1393 86.2705 41.3233 86.007 41.8193 85.1282C42.2431 84.3765 42.0258 83.3968 41.3258 82.8928Z" fill="#B11226" />
    <path d="M75.8986 82.7286C75.2119 83.2328 74.9999 84.1954 75.4109 84.9411C75.9039 85.8354 77.1073 86.102 77.9314 85.4963C86.3374 79.3221 91.3559 69.4166 91.3559 58.9998C91.3559 53.7761 90.0991 48.577 87.7215 43.9645C85.4213 39.5029 82.0679 35.5628 78.023 32.57C77.2605 32.0061 76.185 32.1666 75.6211 32.9291C75.0569 33.6915 75.2177 34.7667 75.9801 35.3309C83.4574 40.8629 87.9214 49.7111 87.9214 58.9995C87.9214 68.3283 83.427 77.1986 75.8986 82.7286Z" fill="#B11226" />
    <path d="M58.4994 40.7972C48.4622 40.7972 40.2966 48.963 40.2966 58.9999C40.2966 69.0369 48.4622 77.2027 58.4994 77.2027C68.5366 77.2027 76.7022 69.0369 76.7022 58.9999C76.7022 48.963 68.5366 40.7972 58.4994 40.7972ZM58.4994 73.7682C50.3562 73.7682 43.7311 67.1431 43.7311 58.9999C43.7311 50.8568 50.3562 44.2317 58.4994 44.2317C66.6426 44.2317 73.2677 50.8568 73.2677 58.9999C73.2677 67.1431 66.6428 73.7682 58.4994 73.7682Z" fill="#B11226" />
    <path d="M53.0042 18.8166C50.0373 18.8166 47.6235 21.2303 47.6235 24.1973V37.0194C47.6235 37.9677 48.3922 38.7366 49.3408 38.7366H67.658C68.6066 38.7366 69.3753 37.9677 69.3753 37.0194V24.1973C69.3753 21.2303 66.9615 18.8166 63.9946 18.8166H53.0042ZM65.9408 24.1973V35.3021H51.058V24.1973C51.058 23.1241 51.9311 22.2511 53.0042 22.2511H63.9946C65.0677 22.2511 65.9408 23.1241 65.9408 24.1973Z" fill="#B11226" />
    <path d="M47.5092 11.2607H49.6209C50.4257 15.429 54.0997 18.5876 58.4995 18.5876C63.4864 18.5876 67.5437 14.5303 67.5437 9.54342C67.5437 4.55655 63.4866 0.499283 58.4995 0.499283C50.1947 0.499283 46.5892 6.14283 45.8432 9.12694C45.5767 10.1946 46.4106 11.2607 47.5092 11.2607ZM58.4995 15.1531C56.0052 15.1531 53.8868 13.5162 53.1598 11.2607H63.8395C63.1123 13.5162 60.9941 15.1531 58.4995 15.1531ZM58.4995 3.93377C60.9941 3.93377 63.1134 5.57018 63.8404 7.82618H50.2233C51.4181 6.08925 53.8394 3.93377 58.4995 3.93377Z" fill="#B11226" />
    <path d="M111.619 57.2827H100.629C97.662 57.2827 95.2483 59.6965 95.2483 62.6634V75.4855C95.2483 76.4339 96.0169 77.2028 96.9655 77.2028H115.283C116.231 77.2028 117 76.4339 117 75.4855V62.6634C117 59.6965 114.586 57.2827 111.619 57.2827ZM113.566 73.7683H98.6828V62.6634C98.6828 61.5903 99.5558 60.7172 100.629 60.7172H111.619C112.692 60.7172 113.566 61.5903 113.566 62.6634V73.7683Z" fill="#B11226" />
    <path d="M93.4678 47.5932C93.2011 48.6608 94.0352 49.7269 95.1338 49.7269H97.2455C98.0503 53.8952 101.724 57.0538 106.124 57.0538C111.111 57.0538 115.168 52.9965 115.168 48.0097C115.168 43.0228 111.111 38.9655 106.124 38.9655C97.8193 38.9655 94.214 44.6091 93.4678 47.5932ZM106.124 53.6193C103.63 53.6193 101.511 51.9824 100.784 49.7269H111.464C110.737 51.9824 108.619 53.6193 106.124 53.6193ZM106.124 42.4C108.619 42.4 110.738 44.0364 111.465 46.2924H97.8479C99.0427 44.5555 101.464 42.4 106.124 42.4Z" fill="#B11226" />
    <path d="M63.9946 97.5807H53.0042C50.0373 97.5807 47.6235 99.9945 47.6235 102.961V115.783C47.6235 116.732 48.3922 117.501 49.3408 117.501H67.658C68.6066 117.501 69.3753 116.732 69.3753 115.783V102.961C69.3753 99.9945 66.9615 97.5807 63.9946 97.5807ZM65.9408 114.066H51.058V102.961C51.058 101.888 51.9311 101.015 53.0042 101.015H63.9946C65.0677 101.015 65.9408 101.888 65.9408 102.961V114.066Z" fill="#B11226" />
    <path d="M58.4991 97.3517C63.486 97.3517 67.5433 93.2944 67.5433 88.3076C67.5433 83.3207 63.486 79.2634 58.4991 79.2634C50.1943 79.2634 46.5888 84.907 45.8428 87.8911C45.5761 88.9587 46.4102 90.0248 47.5088 90.0248H49.6205C50.4253 94.1931 54.0995 97.3517 58.4991 97.3517ZM58.4991 93.9172C56.0048 93.9172 53.8864 92.2804 53.1594 90.0248H63.839C63.1118 92.2804 60.9937 93.9172 58.4991 93.9172ZM58.4991 82.6979C60.9937 82.6979 63.113 84.3343 63.84 86.5903H50.2229C51.4177 84.8534 53.839 82.6979 58.4991 82.6979Z" fill="#B11226" />
    <path d="M23.5823 77.3173V64.4952C23.5823 61.5283 21.1685 59.1145 18.2016 59.1145H7.21126C4.24432 59.1145 1.83057 61.5283 1.83057 64.4952V77.3173C1.83057 78.2656 2.5992 79.0345 3.54781 79.0345H21.8651C22.8137 79.0345 23.5823 78.2656 23.5823 77.3173ZM20.1478 75.6H5.26505V64.4952C5.26505 63.422 6.1381 62.549 7.21126 62.549H18.2016C19.2748 62.549 20.1478 63.422 20.1478 64.4952V75.6Z" fill="#B11226" />
    <path d="M12.7064 58.8855C17.6933 58.8855 21.7505 54.8282 21.7505 49.8413C21.7505 44.8545 17.6933 40.7972 12.7064 40.7972C4.40157 40.7972 0.796046 46.4407 0.0500758 49.4248C-0.216669 50.4925 0.617453 51.5586 1.71603 51.5586H3.82778C4.63259 55.7269 8.3068 58.8855 12.7064 58.8855ZM12.7064 55.451C10.212 55.451 8.09364 53.8141 7.36667 51.5586H18.0463C17.3191 53.8141 15.201 55.451 12.7064 55.451ZM12.7064 44.2317C15.201 44.2317 17.3203 45.8681 18.0472 48.1241H4.43042C5.62493 46.3871 8.04624 44.2317 12.7064 44.2317Z" fill="#B11226" />
    <path d="M60.2167 48.9747V48.0096C60.2167 47.0612 59.4481 46.2924 58.4995 46.2924C57.5509 46.2924 56.7822 47.0612 56.7822 48.0096V49.0569C54.0727 49.5824 52.0198 51.9716 52.0198 54.8328C52.0198 58.0774 54.6595 60.7172 57.9042 60.7172H59.0946C60.4455 60.7172 61.5445 61.8162 61.5445 63.1671C61.5445 64.518 60.4455 65.6171 59.0946 65.6171H57.3086C56.2861 65.6171 55.454 64.785 55.454 63.7624C55.454 62.8141 54.6854 62.0452 53.7368 62.0452C52.7882 62.0452 52.0195 62.8141 52.0195 63.7624C52.0195 66.5011 54.1118 68.7601 56.782 69.0252V69.9903C56.782 70.9387 57.5507 71.7075 58.4993 71.7075C59.4479 71.7075 60.2165 70.9387 60.2165 69.9903V68.943C62.9261 68.4175 64.979 66.0283 64.979 63.1671C64.979 59.9225 62.3393 57.2827 59.0946 57.2827H57.9042C56.5533 57.2827 55.4542 56.1837 55.4542 54.8328C55.4542 53.4819 56.5533 52.3828 57.9042 52.3828H59.6901C60.7127 52.3828 61.5447 53.2149 61.5447 54.2375V55.4281C61.5447 56.3765 62.3134 57.1453 63.262 57.1453C64.2106 57.1453 64.9792 56.3765 64.9792 55.4281V54.2375C64.9792 51.4988 62.8869 49.2398 60.2167 48.9747Z" fill="#B11226" />
</svg>
    