<svg width="168" height="168" viewBox="0 0 168 168" fill="none" xmlns="http://www.w3.org/2000/svg">
    <g clip-path="url(#clip0_0_1)">
        <path d="M129 103.682L127.19 106.611C127.19 106.611 125.559 104.937 122.77 105.71C119.982 106.482 118.083 109.476 118.617 112.824C119.151 116.171 122.533 119.937 127.19 117.073C128.347 118.875 128.852 119.873 128.852 119.873C128.852 119.873 126.152 122.641 121.079 120.871C115.828 118.489 114.849 112.695 115.68 109.411C116.511 106.128 118.38 103.553 121.85 102.33C125.321 101.106 129 103.682 129 103.682Z" fill="white" />
        <path d="M116.095 105.388C116.095 105.388 113.752 109.25 114.434 113.725C115.116 118.199 119.359 121.161 121.109 121.998C115.858 120.871 112.239 118.714 111.26 112.469C109.42 113.017 108.679 113.274 108.679 113.274L108.174 109.315L116.095 105.388Z" fill="white" />
        <path d="M109.954 114.272C109.954 114.272 110.874 121.322 120.931 122.77C116.244 123.639 109.747 122.191 105 115.882C108.471 114.787 109.954 114.272 109.954 114.272Z" fill="white" />
    </g>
    <path d="M134.219 143.062C134.219 141.804 135.241 140.781 136.5 140.781C137.759 140.781 138.781 141.804 138.781 143.062C138.781 144.321 137.759 145.344 136.5 145.344C135.241 145.344 134.219 144.321 134.219 143.062Z" fill="white" stroke="#B11226" stroke-width="2" />
    <mask id="path-5-inside-1_0_1" fill="white">
        <path d="M146.344 15.5636V9.84375C146.344 4.41591 141.928 0 136.5 0H31.5C26.0722 0 21.6562 4.41591 21.6562 9.84375V15.5636C0.253641 55.0909 0.000984375 53.9172 0 55.7776C0 55.779 0 55.7799 0 55.7812V62.3438C0 68.0311 3.28847 73.3205 8.53125 76.3284V164.719C8.53125 166.531 10.0006 168 11.8125 168H156.188C157.999 168 159.469 166.531 159.469 164.719V76.3284C164.659 73.3231 168 67.9714 168 62.3438V55.7812C168 55.7799 168 55.779 168 55.7776C167.999 53.8972 167.538 54.7053 146.344 15.5636ZM159.17 52.5H138.865L127.928 19.6875H141.123L159.17 52.5ZM113.531 59.0625H133.219V62.3438C133.219 67.7716 128.803 72.1875 123.375 72.1875C117.947 72.1875 113.531 67.7716 113.531 62.3438V59.0625ZM113.03 52.5L107.561 19.6875H121.01L131.947 52.5H113.03ZM28.2188 9.84375C28.2188 8.03447 29.6907 6.5625 31.5 6.5625H136.5C138.309 6.5625 139.781 8.03447 139.781 9.84375V13.125C136.657 13.125 31.3674 13.125 28.2188 13.125V9.84375ZM106.969 59.0625V62.3438C106.969 67.7716 102.553 72.1875 97.125 72.1875C91.6972 72.1875 87.2812 67.7716 87.2812 62.3438V59.0625H106.969ZM87.2812 52.5V19.6875H100.908L106.377 52.5H87.2812ZM61.6235 52.5L67.0924 19.6875H80.7188V52.5H61.6235ZM80.7188 59.0625V62.3438C80.7188 67.7716 76.3028 72.1875 70.875 72.1875C65.4472 72.1875 61.0312 67.7716 61.0312 62.3438V59.0625H80.7188ZM36.0524 52.5L46.9898 19.6875H60.439L54.9701 52.5H36.0524ZM54.4688 59.0625V62.3438C54.4688 67.7716 50.0528 72.1875 44.625 72.1875C39.1972 72.1875 34.7812 67.7716 34.7812 62.3438V59.0625H54.4688ZM26.8774 19.6875H40.0723L29.1349 52.5H8.8305L26.8774 19.6875ZM6.5625 62.3438V59.0625H28.2188V62.3438C28.2188 67.4956 23.0577 72.1875 17.3906 72.1875C15.962 72.1875 14.4815 71.8774 13.1033 71.2878C9.19111 69.6239 6.5625 66.0293 6.5625 62.3438ZM67.5938 161.438H34.7812V133.219H67.5938V161.438ZM67.5938 126.656H34.7812V98.4375H67.5938V126.656ZM152.906 161.438H74.1562V95.1562C74.1562 93.3443 72.6869 91.875 70.875 91.875H31.5C29.6881 91.875 28.2188 93.3443 28.2188 95.1562V161.438H15.0938V78.5895C15.8543 78.6929 16.6205 78.75 17.3906 78.75C21.7091 78.75 26.0745 77.0392 29.3665 74.0558C30.0946 73.3963 30.7502 72.6908 31.3386 71.9516C34.3225 76.0666 39.165 78.75 44.625 78.75C49.9862 78.75 54.7542 76.165 57.75 72.176C60.7458 76.165 65.5138 78.75 70.875 78.75C76.2362 78.75 81.0042 76.165 84 72.176C86.9958 76.165 91.7638 78.75 97.125 78.75C102.486 78.75 107.254 76.165 110.25 72.176C113.246 76.165 118.014 78.75 123.375 78.75C128.835 78.75 133.677 76.0666 136.661 71.9516C137.25 72.6908 137.905 73.396 138.633 74.0558C141.926 77.0392 146.291 78.75 150.609 78.75C151.378 78.75 152.144 78.6949 152.906 78.5909V161.438ZM161.438 62.3438C161.438 66.1329 158.711 69.7689 154.654 71.3918C153.327 71.9201 151.967 72.1875 150.609 72.1875C144.942 72.1875 139.781 67.4956 139.781 62.3438V59.0625H161.438V62.3438Z" />
    </mask>
    <path d="M146.344 15.5636V9.84375C146.344 4.41591 141.928 0 136.5 0H31.5C26.0722 0 21.6562 4.41591 21.6562 9.84375V15.5636C0.253641 55.0909 0.000984375 53.9172 0 55.7776C0 55.779 0 55.7799 0 55.7812V62.3438C0 68.0311 3.28847 73.3205 8.53125 76.3284V164.719C8.53125 166.531 10.0006 168 11.8125 168H156.188C157.999 168 159.469 166.531 159.469 164.719V76.3284C164.659 73.3231 168 67.9714 168 62.3438V55.7812C168 55.7799 168 55.779 168 55.7776C167.999 53.8972 167.538 54.7053 146.344 15.5636ZM159.17 52.5H138.865L127.928 19.6875H141.123L159.17 52.5ZM113.531 59.0625H133.219V62.3438C133.219 67.7716 128.803 72.1875 123.375 72.1875C117.947 72.1875 113.531 67.7716 113.531 62.3438V59.0625ZM113.03 52.5L107.561 19.6875H121.01L131.947 52.5H113.03ZM28.2188 9.84375C28.2188 8.03447 29.6907 6.5625 31.5 6.5625H136.5C138.309 6.5625 139.781 8.03447 139.781 9.84375V13.125C136.657 13.125 31.3674 13.125 28.2188 13.125V9.84375ZM106.969 59.0625V62.3438C106.969 67.7716 102.553 72.1875 97.125 72.1875C91.6972 72.1875 87.2812 67.7716 87.2812 62.3438V59.0625H106.969ZM87.2812 52.5V19.6875H100.908L106.377 52.5H87.2812ZM61.6235 52.5L67.0924 19.6875H80.7188V52.5H61.6235ZM80.7188 59.0625V62.3438C80.7188 67.7716 76.3028 72.1875 70.875 72.1875C65.4472 72.1875 61.0312 67.7716 61.0312 62.3438V59.0625H80.7188ZM36.0524 52.5L46.9898 19.6875H60.439L54.9701 52.5H36.0524ZM54.4688 59.0625V62.3438C54.4688 67.7716 50.0528 72.1875 44.625 72.1875C39.1972 72.1875 34.7812 67.7716 34.7812 62.3438V59.0625H54.4688ZM26.8774 19.6875H40.0723L29.1349 52.5H8.8305L26.8774 19.6875ZM6.5625 62.3438V59.0625H28.2188V62.3438C28.2188 67.4956 23.0577 72.1875 17.3906 72.1875C15.962 72.1875 14.4815 71.8774 13.1033 71.2878C9.19111 69.6239 6.5625 66.0293 6.5625 62.3438ZM67.5938 161.438H34.7812V133.219H67.5938V161.438ZM67.5938 126.656H34.7812V98.4375H67.5938V126.656ZM152.906 161.438H74.1562V95.1562C74.1562 93.3443 72.6869 91.875 70.875 91.875H31.5C29.6881 91.875 28.2188 93.3443 28.2188 95.1562V161.438H15.0938V78.5895C15.8543 78.6929 16.6205 78.75 17.3906 78.75C21.7091 78.75 26.0745 77.0392 29.3665 74.0558C30.0946 73.3963 30.7502 72.6908 31.3386 71.9516C34.3225 76.0666 39.165 78.75 44.625 78.75C49.9862 78.75 54.7542 76.165 57.75 72.176C60.7458 76.165 65.5138 78.75 70.875 78.75C76.2362 78.75 81.0042 76.165 84 72.176C86.9958 76.165 91.7638 78.75 97.125 78.75C102.486 78.75 107.254 76.165 110.25 72.176C113.246 76.165 118.014 78.75 123.375 78.75C128.835 78.75 133.677 76.0666 136.661 71.9516C137.25 72.6908 137.905 73.396 138.633 74.0558C141.926 77.0392 146.291 78.75 150.609 78.75C151.378 78.75 152.144 78.6949 152.906 78.5909V161.438ZM161.438 62.3438C161.438 66.1329 158.711 69.7689 154.654 71.3918C153.327 71.9201 151.967 72.1875 150.609 72.1875C144.942 72.1875 139.781 67.4956 139.781 62.3438V59.0625H161.438V62.3438Z" fill="white" stroke="#B11226" stroke-width="4.6" mask="url(#path-5-inside-1_0_1)" />
    <path d="M138.781 126.656V127.656H139.781H143.062C144.322 127.656 145.344 128.678 145.344 129.938C145.344 131.197 144.322 132.219 143.062 132.219H90.5625C89.3029 132.219 88.2812 131.197 88.2812 129.938C88.2812 128.678 89.3029 127.656 90.5625 127.656H93.8438H94.8438V126.656V95.1562C94.8438 93.8966 95.8654 92.875 97.125 92.875H136.5C137.76 92.875 138.781 93.8966 138.781 95.1562V126.656ZM133.219 127.656H134.219V126.656V98.4375V97.4375H133.219H100.406H99.4062V98.4375V126.656V127.656H100.406H133.219Z" fill="white" stroke="#B11226" stroke-width="2" />
    <path d="M97.125 140.781H123.375C124.635 140.781 125.656 141.803 125.656 143.062C125.656 144.322 124.635 145.344 123.375 145.344H97.125C95.8654 145.344 94.8438 144.322 94.8438 143.062C94.8438 141.803 95.8654 140.781 97.125 140.781Z" fill="white" stroke="#B11226" stroke-width="2" />
    <defs>
        <clipPath id="clip0_0_1">
            <rect width="24" height="21" fill="white" transform="translate(105 102)" />
        </clipPath>
    </defs>
</svg>
    