<svg width="97" height="126" viewBox="0 0 97 126" fill="none" xmlns="http://www.w3.org/2000/svg">
    <path d="M64.2731 45.5931L64.273 45.5931C63.2222 44.5423 61.518 44.5422 60.4668 45.5931C60.4668 45.5931 60.4668 45.5932 60.4668 45.5932M64.2731 45.5931L60.4668 45.5932M64.2731 45.5931L66.8834 48.2032L67.5905 48.9103L68.2976 48.2032L76.1276 40.3729C77.1792 39.3216 78.8832 39.3217 79.9338 40.3726L79.9339 40.3727C80.9851 41.4239 80.985 43.128 79.934 44.1788L79.9339 44.1789L69.4932 54.6197L69.493 54.6198C68.9676 55.1454 68.2803 55.4081 67.5902 55.4081C66.9002 55.4081 66.2131 55.1455 65.6872 54.6197L60.4669 49.3993M64.2731 45.5931L60.4669 49.3993M60.4668 45.5932C59.416 46.644 59.416 48.3482 60.4669 49.3993M60.4668 45.5932L60.4669 49.3993" fill="#B11226" stroke="white" stroke-width="2" />
    <path d="M76.1283 59.0759L76.1282 59.0759L68.2975 66.9063L67.5905 67.6134L66.8834 66.9063L64.2731 64.2963L64.273 64.2962C63.2222 63.2455 61.518 63.2453 60.4668 64.2962C60.4668 64.2963 60.4668 64.2963 60.4668 64.2963M76.1283 59.0759L60.4668 64.2963M76.1283 59.0759C77.1796 58.0245 78.8834 58.0246 79.9337 59.0756L79.9339 59.0759C80.9851 60.127 80.985 61.8312 79.934 62.882L79.9339 62.882L69.4932 73.3228L69.493 73.3229M76.1283 59.0759L69.493 73.3229M60.4668 64.2963C59.4161 65.3471 59.416 67.0513 60.4668 68.1024M60.4668 64.2963L60.4668 68.1024M60.4668 68.1024C60.4669 68.1024 60.4669 68.1025 60.4669 68.1025M60.4668 68.1024L60.4669 68.1025M60.4669 68.1025L65.6872 73.3228C66.2131 73.8486 66.9002 74.1112 67.5902 74.1112C68.2803 74.1112 68.9676 73.8486 69.493 73.3229M60.4669 68.1025L69.493 73.3229" fill="#B11226" stroke="white" stroke-width="2" />
    <path d="M18.9688 44.8047H48.5C49.9864 44.8047 51.1914 46.0097 51.1914 47.4961C51.1914 48.9824 49.9864 50.1875 48.5 50.1875H18.9688C17.4824 50.1875 16.2773 48.9824 16.2773 47.4961C16.2773 46.0097 17.4824 44.8047 18.9688 44.8047Z" fill="#B11226" stroke="white" stroke-width="2" />
    <path d="M18.9688 63.5078H48.5C49.9864 63.5078 51.1914 64.7129 51.1914 66.1992C51.1914 67.6856 49.9864 68.8906 48.5 68.8906H18.9688C17.4824 68.8906 16.2773 67.6856 16.2773 66.1992C16.2773 64.7129 17.4824 63.5078 18.9688 63.5078Z" fill="#B11226" stroke="white" stroke-width="2" />
    <path d="M18.9688 82.2109H48.5C49.9864 82.2109 51.1914 83.416 51.1914 84.9023C51.1914 86.3887 49.9864 87.5938 48.5 87.5938H18.9688C17.4824 87.5938 16.2773 86.3887 16.2773 84.9023C16.2773 83.416 17.4824 82.2109 18.9688 82.2109Z" fill="#B11226" stroke="white" stroke-width="2" />
    <path d="M18.9688 100.914H48.5C49.9864 100.914 51.1914 102.119 51.1914 103.605C51.1914 105.092 49.9864 106.297 48.5 106.297H18.9688C17.4824 106.297 16.2773 105.092 16.2773 103.605C16.2773 102.119 17.4824 100.914 18.9688 100.914Z" fill="#B11226" stroke="white" stroke-width="2" />
    <path d="M70.8993 15.192L71.1697 15.7656H71.8038H92.7969C94.2832 15.7656 95.4883 16.9707 95.4883 18.457V122.309C95.4883 123.795 94.2832 125 92.7969 125H4.20312C2.71677 125 1.51172 123.795 1.51172 122.309V18.457C1.51172 16.9707 2.71677 15.7656 4.20312 15.7656H25.1964H25.8305L26.1009 15.192C27.3299 12.585 29.9649 10.8438 32.9821 10.8438H36.3895H37.6703L37.3596 9.60119L36.0452 4.34416C35.8443 3.54046 36.025 2.68843 36.535 2.03502C37.0451 1.38173 37.8276 1 38.6562 1H58.3438C59.1725 1 59.955 1.38177 60.4655 2.03529C60.9753 2.68833 61.1559 3.54046 60.955 4.34414L59.6406 9.60119L59.33 10.8438H60.6108H64.0182C67.0356 10.8438 69.6704 12.585 70.8993 15.192ZM43.384 6.38281H42.1031L42.4138 7.62537L43.7282 12.8824C43.9291 13.6861 43.7485 14.5381 43.2385 15.1915C42.7283 15.8448 41.9459 16.2266 41.1172 16.2266H32.9818C31.889 16.2266 30.9614 17.0124 30.7819 18.0905L29.7228 24.445L29.5287 25.6094H30.7091H66.2909H67.4713L67.2773 24.445L66.2183 18.0904L66.2183 18.0901C66.0384 17.0124 65.111 16.2266 64.0182 16.2266H55.8828C55.0542 16.2266 54.2717 15.8449 53.7612 15.1914C53.2513 14.5384 53.0706 13.6862 53.2715 12.8824L54.5859 7.62537L54.8966 6.38281H53.6158H43.384ZM89.1055 119.617H90.1055V118.617V22.1484V21.1484H89.1055H73.3653H72.1848L72.3789 22.3128L73.3032 27.8583C73.4333 28.6383 73.2134 29.4364 72.7019 30.0404C72.1905 30.6441 71.4395 30.9922 70.6484 30.9922H26.3516C25.5607 30.9922 24.8097 30.644 24.2979 30.0401C23.7865 29.4367 23.5667 28.6387 23.6967 27.8583L23.6967 27.8583L24.6211 22.3129L24.8152 21.1484H23.6347H7.89453H6.89453V22.1484V118.617V119.617H7.89453H89.1055Z" fill="#B11226" stroke="white" stroke-width="2" />
</svg>
    