<svg width="123" height="124" viewBox="0 0 123 124" fill="none" xmlns="http://www.w3.org/2000/svg">
    <g clip-path="url(#clip0_10_227)">
        <path d="M78.669 108.442L78.6671 108.443C77.6037 109.245 77.3883 110.763 78.1866 111.833C78.6596 112.468 79.3817 112.802 80.1141 112.802C80.6172 112.802 81.124 112.644 81.5574 112.317C82.6208 111.515 82.8362 109.997 82.0388 108.927C81.2406 107.857 79.7324 107.639 78.669 108.442Z" fill="#B11226" />
        <path d="M113.094 80.8093C112.102 78.9806 110.408 77.6741 108.325 77.133C105.982 76.5246 103.338 76.9579 101.251 78.2928L82.5108 90.2659C81.2763 86.898 77.9384 84.6039 74.2037 84.8735L65.0306 85.5386C58.1094 86.04 58.0276 85.9927 53.7918 83.5225C52.8449 82.97 51.6659 82.2823 50.2066 81.4791C44.5519 78.3685 38.1573 77.1121 30.6597 77.6353C25.006 78.0307 18.7298 79.4441 10.9088 82.0836C9.92809 82.4147 9.26709 83.339 9.26709 84.3797V113.019C9.26709 113.803 9.64413 114.539 10.2779 114.993C10.9125 115.447 11.7268 115.564 12.4621 115.308L23.2994 111.528L46.8781 121.677C50.4529 123.207 53.6451 124 56.8316 124C61.8479 124 66.8491 122.036 73.3039 117.9C74.4256 117.181 74.7556 115.684 74.041 114.556C73.3265 113.428 71.8399 113.096 70.7182 113.814C60.5315 120.343 55.5218 120.114 48.7671 117.222L24.3374 106.707C23.7865 106.47 23.1678 106.448 22.6017 106.646L14.0821 109.617V86.1317C25.0812 82.5538 37.4794 79.9985 47.8973 85.7297C49.304 86.5035 50.4059 87.1459 51.3791 87.7135C56.3427 90.6084 57.2876 90.9566 65.3776 90.37L74.5497 89.7049C76.4189 89.5697 78.0597 90.9935 78.1951 92.8799C78.2186 93.2119 78.1923 93.5241 78.1227 93.8146C78.1152 93.8439 78.1076 93.8723 78.1011 93.9007C77.708 95.3604 76.2403 96.2856 74.7397 96.5884C69.1894 97.7066 63.8299 98.7037 58.6463 99.6668C56.0014 100.159 53.3555 100.651 50.6739 101.161C49.3679 101.408 48.5085 102.675 48.7558 103.99C49.0021 105.304 50.263 106.169 51.5671 105.92C54.2422 105.412 56.8824 104.921 59.5217 104.43C64.7222 103.463 70.0995 102.463 75.6855 101.338C78.9539 100.679 81.4164 98.6668 82.4638 96.034L103.831 82.3816C104.816 81.7525 106.045 81.5425 107.121 81.8234C107.673 81.9663 108.423 82.3097 108.869 83.1299C109.803 84.8508 109.806 87.2329 108.01 88.4562L86.7373 102.944C85.6372 103.693 85.3485 105.199 86.0932 106.307C86.8379 107.415 88.3348 107.704 89.4358 106.955L110.708 92.4683C114.394 89.9575 115.397 85.0551 113.094 80.8093Z" fill="#B11226" />
        <path d="M61.7877 72.6572C81.6966 72.6572 97.8934 56.3597 97.8934 36.3281C97.8934 16.2966 81.6966 0 61.7877 0C55.8265 0 49.902 1.50421 44.6553 4.34991C43.4847 4.98471 43.0475 6.45392 43.6784 7.63174C44.3093 8.80862 45.7695 9.24854 46.9392 8.61374C51.4872 6.1474 56.6219 4.84375 61.7877 4.84375C79.0422 4.84375 93.0793 18.9682 93.0793 36.3281C93.0793 53.689 79.0422 67.8134 61.7877 67.8134C44.5331 67.8134 30.4961 53.689 30.4961 36.3281C30.4961 31.1022 31.8049 25.9112 34.2816 21.3172C34.9162 20.1413 34.4818 18.6711 33.314 18.0326C32.1453 17.3949 30.6841 17.8311 30.0504 19.007C27.1921 24.3086 25.682 30.298 25.682 36.3281C25.682 56.3597 41.8788 72.6572 61.7877 72.6572Z" fill="#B11226" />
        <path d="M59.3807 36.3281C59.3807 37.6658 60.4582 38.75 61.7877 38.75H71.116C72.4455 38.75 73.523 37.6658 73.523 36.3281C73.523 34.9904 72.4455 33.9062 71.116 33.9062H64.1948L64.1939 21.7978C64.1939 20.4601 63.1163 19.3759 61.7868 19.3759C60.4573 19.3759 59.3798 20.4601 59.3798 21.7978L59.3807 36.3281Z" fill="#B11226" />
        <path d="M61.7886 14.5322C63.1181 14.5322 64.1956 13.448 64.1956 12.1103C64.1956 10.7726 63.1181 9.68845 61.7886 9.68845H61.7867C60.4572 9.68845 59.3806 10.7726 59.3806 12.1103C59.3806 13.448 60.4591 14.5322 61.7886 14.5322Z" fill="#B11226" />
        <path d="M49.7554 17.7762C50.1672 17.7762 50.5847 17.6702 50.9664 17.446C52.1145 16.7724 52.5028 15.289 51.8324 14.1339C51.1629 12.9788 49.6905 12.5881 48.5406 13.2626H48.5387C47.3906 13.9371 47.0033 15.4196 47.6737 16.5747C48.1212 17.3467 48.927 17.7762 49.7554 17.7762Z" fill="#B11226" />
        <path d="M38.8926 22.9492L38.8917 22.951C38.195 24.0891 38.5485 25.5801 39.6806 26.2821C40.0736 26.5252 40.5089 26.6406 40.9395 26.6406C41.7482 26.6406 42.538 26.231 42.9921 25.4874C43.6898 24.3484 43.3362 22.8564 42.2042 22.1554C41.0721 21.4544 39.5894 21.8101 38.8926 22.9492Z" fill="#B11226" />
        <path d="M37.7172 38.75C39.0467 38.75 40.1243 37.6649 40.1243 36.3281C40.1243 34.9904 39.0467 33.9062 37.7172 33.9062C36.3886 33.9062 35.3102 34.9904 35.3102 36.3281V36.3291C35.3102 37.6668 36.3886 38.75 37.7172 38.75Z" fill="#B11226" />
        <path d="M39.6806 46.3742C38.5485 47.0752 38.195 48.5671 38.8917 49.7062L38.8926 49.7071C39.3477 50.4507 40.1366 50.8594 40.9443 50.8594C41.3749 50.8594 41.8102 50.744 42.2042 50.4999C43.3362 49.7989 43.6888 48.306 42.9921 47.167C42.2954 46.0289 40.8136 45.6732 39.6806 46.3742Z" fill="#B11226" />
        <path d="M48.5386 59.3936L48.5405 59.3946C48.9222 59.6179 49.3388 59.7248 49.7506 59.7248C50.578 59.7248 51.3847 59.2943 51.8314 58.5223C52.5018 57.3672 52.1134 55.8838 50.9644 55.2093C49.8164 54.5357 48.3421 54.9255 47.6726 56.0815C47.0032 57.2367 47.3906 58.7201 48.5386 59.3936Z" fill="#B11226" />
        <path d="M61.7868 62.9688H61.7887C63.1182 62.9688 64.1948 61.8846 64.1948 60.5469C64.1948 59.2092 63.1163 58.125 61.7868 58.125C60.4573 58.125 59.3798 59.2092 59.3798 60.5469C59.3798 61.8846 60.4573 62.9688 61.7868 62.9688Z" fill="#B11226" />
        <path d="M72.6091 55.2102C71.461 55.8848 71.0727 57.3672 71.7431 58.5233C72.1897 59.2943 72.9965 59.7248 73.8239 59.7248C74.2357 59.7248 74.6532 59.6188 75.035 59.3946L75.0359 59.3937C76.1849 58.7201 76.5713 57.2376 75.9019 56.0815C75.2324 54.9264 73.7571 54.5367 72.6091 55.2102Z" fill="#B11226" />
        <path d="M81.3712 50.5009C81.7643 50.7449 82.1996 50.8604 82.6302 50.8604C83.4379 50.8604 84.2277 50.4517 84.6819 49.7081L84.6828 49.7062C85.3805 48.5671 85.0269 47.0762 83.8949 46.3752C82.7619 45.6741 81.2791 46.0298 80.5824 47.1689C79.8856 48.3079 80.2392 49.7998 81.3712 50.5009Z" fill="#B11226" />
        <path d="M83.4512 36.3291C83.4512 37.6668 84.5287 38.7509 85.8582 38.7509C87.1868 38.7509 88.2653 37.6668 88.2653 36.3291V36.3272C88.2653 34.9895 87.1868 33.9062 85.8582 33.9062C84.5287 33.9062 83.4512 34.9914 83.4512 36.3291Z" fill="#B11226" />
        <path d="M84.6828 22.9491C83.9861 21.8101 82.5033 21.4553 81.3713 22.1564C80.2392 22.8574 79.8866 24.3502 80.5834 25.4893C81.0384 26.2329 81.8273 26.6425 82.6359 26.6425C83.0656 26.6425 83.5019 26.5261 83.8949 26.283C85.027 25.581 85.3805 24.0901 84.6828 22.951V22.9491Z" fill="#B11226" />
        <path d="M75.0368 13.2626H75.0349C73.8869 12.5881 72.4135 12.9788 71.7441 14.1349C71.0737 15.29 71.462 16.7734 72.611 17.447C72.9918 17.6712 73.4092 17.7771 73.8211 17.7771C74.6494 17.7771 75.4552 17.3467 75.9028 16.5757C76.5722 15.4196 76.1849 13.9371 75.0368 13.2626Z" fill="#B11226" />
        <path d="M37.9872 14.7451C38.6228 14.7451 39.2584 14.4934 39.7323 13.993C40.649 13.0252 40.6114 11.4916 39.6486 10.5692C38.6867 9.64683 37.1626 9.68373 36.2458 10.6525L36.243 10.6553C35.3262 11.6241 35.3648 13.1557 36.3276 14.0781C36.793 14.5237 37.3901 14.7451 37.9872 14.7451Z" fill="#B11226" />
    </g>
    <defs>
        <clipPath id="clip0_10_227">
            <rect width="123" height="124" fill="white" />
        </clipPath>
    </defs>
</svg>
    