<svg width="28" height="28" viewBox="0 0 28 28" fill="none" xmlns="http://www.w3.org/2000/svg">
    <path d="M27.184 25.049L19.675 17.469C21.3766 15.3244 22.1915 12.6092 21.952 9.8821C21.7125 7.15496 20.4368 4.62336 18.3874 2.80823C16.3381 0.993101 13.6709 0.0325248 10.9348 0.124167C8.19875 0.215808 5.60185 1.3527 3.67853 3.30089C1.75521 5.24908 0.65178 7.86036 0.595298 10.5974C0.538815 13.3345 1.53358 15.989 3.37489 18.0149C5.2162 20.0408 7.76398 21.2839 10.494 21.4883C13.2239 21.6927 15.9285 20.843 18.051 19.114L25.511 26.644C25.722 26.8653 26.0121 26.9939 26.3178 27.0018C26.6235 27.0097 26.9198 26.8961 27.142 26.686C27.3634 26.4738 27.492 26.1827 27.4999 25.8761C27.5078 25.5695 27.3942 25.2722 27.184 25.049ZM11.265 19.204C9.31009 19.2035 7.41584 18.5253 5.90495 17.2849C4.39406 16.0444 3.36 14.3185 2.97894 12.4011C2.59789 10.4837 2.89341 8.49356 3.81516 6.76965C4.73692 5.04573 6.22788 3.69474 8.03402 2.94684C9.84016 2.19894 11.8497 2.1004 13.7204 2.66802C15.591 3.23563 17.207 4.43428 18.293 6.05975C19.379 7.68522 19.8678 9.63694 19.6761 11.5824C19.4845 13.5278 18.6242 15.3467 17.242 16.729C16.4587 17.5161 15.5272 18.1401 14.5013 18.5649C13.4753 18.9898 12.3754 19.207 11.265 19.204Z" fill="white" />
</svg>
    