<svg width="32" height="32" viewBox="0 0 32 32" fill="none" xmlns="http://www.w3.org/2000/svg">
    <g clip-path="url(#clip0_0_1)">
        <path d="M0.00616942 30.9998C0.0873589 30.3935 0.15004 29.781 0.256154 29.1811C1.07496 24.7749 3.37492 21.3311 7.02499 18.7372C9.55 21.131 12.5249 22.3935 16 22.3873C19.4625 22.3873 22.4312 21.1374 24.9812 18.7249C25.4873 19.1249 26.0176 19.5062 26.5063 19.9373C29.5273 22.5461 31.4497 26.2011 31.8875 30.1686C31.9188 30.4436 31.9615 30.7249 32 30.9998V31.9997H0C0.00616941 31.6686 0.00616942 31.3312 0.00616942 30.9998Z" fill="white" />
        <path d="M16.7564 0C17.3877 0.125116 18.0315 0.206305 18.644 0.38127C20.8892 1.03029 22.8195 2.47794 24.0714 4.45151C25.3232 6.42508 25.8102 8.78831 25.4404 11.096C25.0707 13.4037 23.8699 15.4965 22.0641 16.9802C20.2583 18.4639 17.9723 19.236 15.6368 19.1511C13.3012 19.0662 11.0773 18.1302 9.38402 16.5193C7.69074 14.9084 6.64499 12.7339 6.44378 10.4055C6.24256 8.07706 6.89978 5.75542 8.2916 3.87794C9.68343 2.00047 11.7138 0.696779 14.0002 0.212475C14.4128 0.118699 14.8377 0.0686039 15.2565 0H16.7564Z" fill="white" />
    </g>
    <defs>
        <clipPath id="clip0_0_1">
            <rect width="32" height="32" fill="white" />
        </clipPath>
    </defs>
</svg>
    